<mxfile host="Electron" modified="2024-04-15T05:17:33.294Z" agent="Mozilla/5.0 (Macintosh; Intel Mac OS X 10_15_7) AppleWebKit/537.36 (KHTML, like Gecko) draw.io/24.2.5 Chrome/120.0.6099.109 Electron/28.1.0 Safari/537.36" etag="Q9Aba_CB0dW7O-WatRTz" version="24.2.5" type="device">
  <diagram id="GU4G61x0W2jrhCoQgWN6" name="figure1">
    <mxGraphModel dx="618" dy="805" grid="1" gridSize="10" guides="1" tooltips="1" connect="1" arrows="1" fold="1" page="1" pageScale="1" pageWidth="720" pageHeight="600" math="0" shadow="0">
      <root>
        <mxCell id="0" />
        <mxCell id="1" parent="0" />
        <mxCell id="16UI_I2fcy8cxd0AZ1IG-23" style="edgeStyle=orthogonalEdgeStyle;rounded=0;orthogonalLoop=1;jettySize=auto;html=1;exitX=0.5;exitY=1;exitDx=0;exitDy=0;entryX=0.5;entryY=0;entryDx=0;entryDy=0;" parent="1" source="lL1TapERudLG2ZnHBbzP-11" target="16UI_I2fcy8cxd0AZ1IG-22" edge="1">
          <mxGeometry relative="1" as="geometry" />
        </mxCell>
        <mxCell id="lL1TapERudLG2ZnHBbzP-11" value="Login account" style="rounded=1;whiteSpace=wrap;html=1;fillColor=#dae8fc;strokeColor=#6c8ebf;" parent="1" vertex="1">
          <mxGeometry x="240" y="100" width="80" height="40" as="geometry" />
        </mxCell>
        <mxCell id="16UI_I2fcy8cxd0AZ1IG-46" style="edgeStyle=orthogonalEdgeStyle;rounded=0;orthogonalLoop=1;jettySize=auto;html=1;exitX=0.5;exitY=0;exitDx=0;exitDy=0;entryX=0.5;entryY=1;entryDx=0;entryDy=0;" parent="1" source="16UI_I2fcy8cxd0AZ1IG-16" target="16UI_I2fcy8cxd0AZ1IG-33" edge="1">
          <mxGeometry relative="1" as="geometry" />
        </mxCell>
        <mxCell id="16UI_I2fcy8cxd0AZ1IG-16" value="Select time" style="rounded=1;whiteSpace=wrap;html=1;fillColor=#dae8fc;strokeColor=#6c8ebf;" parent="1" vertex="1">
          <mxGeometry x="100" y="460" width="80" height="40" as="geometry" />
        </mxCell>
        <mxCell id="16UI_I2fcy8cxd0AZ1IG-21" style="edgeStyle=orthogonalEdgeStyle;rounded=0;orthogonalLoop=1;jettySize=auto;html=1;exitX=0.5;exitY=1;exitDx=0;exitDy=0;entryX=0.5;entryY=0;entryDx=0;entryDy=0;" parent="1" source="16UI_I2fcy8cxd0AZ1IG-20" target="lL1TapERudLG2ZnHBbzP-11" edge="1">
          <mxGeometry relative="1" as="geometry" />
        </mxCell>
        <mxCell id="16UI_I2fcy8cxd0AZ1IG-20" value="" style="ellipse;fillColor=#f5f5f5;html=1;fontColor=#333333;strokeColor=#666666;" parent="1" vertex="1">
          <mxGeometry x="270" y="40" width="20" height="20" as="geometry" />
        </mxCell>
        <mxCell id="16UI_I2fcy8cxd0AZ1IG-37" value="authorized" style="edgeStyle=orthogonalEdgeStyle;rounded=0;orthogonalLoop=1;jettySize=auto;html=1;exitX=0.5;exitY=1;exitDx=0;exitDy=0;entryX=0.5;entryY=0;entryDx=0;entryDy=0;" parent="1" source="16UI_I2fcy8cxd0AZ1IG-22" target="16UI_I2fcy8cxd0AZ1IG-34" edge="1">
          <mxGeometry relative="1" as="geometry" />
        </mxCell>
        <mxCell id="16UI_I2fcy8cxd0AZ1IG-39" value="unauthorized" style="edgeStyle=orthogonalEdgeStyle;rounded=0;orthogonalLoop=1;jettySize=auto;html=1;exitX=0;exitY=0.5;exitDx=0;exitDy=0;entryX=0;entryY=0.5;entryDx=0;entryDy=0;" parent="1" source="16UI_I2fcy8cxd0AZ1IG-22" target="lL1TapERudLG2ZnHBbzP-11" edge="1">
          <mxGeometry relative="1" as="geometry" />
        </mxCell>
        <mxCell id="16UI_I2fcy8cxd0AZ1IG-22" value="" style="rhombus;whiteSpace=wrap;html=1;shadow=0;fontFamily=Helvetica;fontSize=12;align=center;strokeWidth=1;spacing=6;spacingTop=-4;fillColor=#ffe6cc;strokeColor=#d79b00;" parent="1" vertex="1">
          <mxGeometry x="260" y="180" width="40" height="40" as="geometry" />
        </mxCell>
        <mxCell id="16UI_I2fcy8cxd0AZ1IG-61" style="edgeStyle=orthogonalEdgeStyle;rounded=0;orthogonalLoop=1;jettySize=auto;html=1;exitX=0.5;exitY=0;exitDx=0;exitDy=0;entryX=0.5;entryY=1;entryDx=0;entryDy=0;" parent="1" source="16UI_I2fcy8cxd0AZ1IG-25" target="16UI_I2fcy8cxd0AZ1IG-60" edge="1">
          <mxGeometry relative="1" as="geometry" />
        </mxCell>
        <mxCell id="16UI_I2fcy8cxd0AZ1IG-25" value="Select car &amp;amp; time" style="rounded=1;whiteSpace=wrap;html=1;fillColor=#dae8fc;strokeColor=#6c8ebf;" parent="1" vertex="1">
          <mxGeometry x="380" y="460" width="80" height="40" as="geometry" />
        </mxCell>
        <mxCell id="16UI_I2fcy8cxd0AZ1IG-48" value="" style="edgeStyle=orthogonalEdgeStyle;rounded=0;orthogonalLoop=1;jettySize=auto;html=1;exitX=0.5;exitY=0;exitDx=0;exitDy=0;entryX=0.5;entryY=1;entryDx=0;entryDy=0;" parent="1" source="16UI_I2fcy8cxd0AZ1IG-33" target="16UI_I2fcy8cxd0AZ1IG-47" edge="1">
          <mxGeometry relative="1" as="geometry" />
        </mxCell>
        <mxCell id="16UI_I2fcy8cxd0AZ1IG-33" value="Check availability" style="rounded=1;whiteSpace=wrap;html=1;fillColor=#dae8fc;strokeColor=#6c8ebf;" parent="1" vertex="1">
          <mxGeometry x="100" y="380" width="80" height="40" as="geometry" />
        </mxCell>
        <mxCell id="16UI_I2fcy8cxd0AZ1IG-41" style="edgeStyle=orthogonalEdgeStyle;rounded=0;orthogonalLoop=1;jettySize=auto;html=1;exitX=0.5;exitY=1;exitDx=0;exitDy=0;entryX=0.5;entryY=0;entryDx=0;entryDy=0;" parent="1" source="16UI_I2fcy8cxd0AZ1IG-34" target="16UI_I2fcy8cxd0AZ1IG-40" edge="1">
          <mxGeometry relative="1" as="geometry" />
        </mxCell>
        <mxCell id="16UI_I2fcy8cxd0AZ1IG-34" value="Main menu" style="rounded=0;whiteSpace=wrap;html=1;fillColor=#d5e8d4;strokeColor=#82b366;" parent="1" vertex="1">
          <mxGeometry x="240" y="300" width="80" height="40" as="geometry" />
        </mxCell>
        <mxCell id="16UI_I2fcy8cxd0AZ1IG-43" style="edgeStyle=orthogonalEdgeStyle;rounded=0;orthogonalLoop=1;jettySize=auto;html=1;exitX=0.5;exitY=1;exitDx=0;exitDy=0;entryX=0.5;entryY=0;entryDx=0;entryDy=0;" parent="1" source="16UI_I2fcy8cxd0AZ1IG-40" target="16UI_I2fcy8cxd0AZ1IG-42" edge="1">
          <mxGeometry relative="1" as="geometry" />
        </mxCell>
        <mxCell id="16UI_I2fcy8cxd0AZ1IG-40" value="Select service type" style="rounded=1;whiteSpace=wrap;html=1;fillColor=#dae8fc;strokeColor=#6c8ebf;" parent="1" vertex="1">
          <mxGeometry x="240" y="380" width="80" height="40" as="geometry" />
        </mxCell>
        <mxCell id="16UI_I2fcy8cxd0AZ1IG-44" value="taxi" style="edgeStyle=orthogonalEdgeStyle;rounded=0;orthogonalLoop=1;jettySize=auto;html=1;exitX=0;exitY=0.5;exitDx=0;exitDy=0;entryX=1;entryY=0.5;entryDx=0;entryDy=0;" parent="1" source="16UI_I2fcy8cxd0AZ1IG-42" target="16UI_I2fcy8cxd0AZ1IG-16" edge="1">
          <mxGeometry relative="1" as="geometry" />
        </mxCell>
        <mxCell id="16UI_I2fcy8cxd0AZ1IG-45" value="rent car" style="edgeStyle=orthogonalEdgeStyle;rounded=0;orthogonalLoop=1;jettySize=auto;html=1;exitX=1;exitY=0.5;exitDx=0;exitDy=0;entryX=0;entryY=0.5;entryDx=0;entryDy=0;" parent="1" source="16UI_I2fcy8cxd0AZ1IG-42" target="16UI_I2fcy8cxd0AZ1IG-25" edge="1">
          <mxGeometry relative="1" as="geometry" />
        </mxCell>
        <mxCell id="16UI_I2fcy8cxd0AZ1IG-42" value="" style="rhombus;whiteSpace=wrap;html=1;shadow=0;fontFamily=Helvetica;fontSize=12;align=center;strokeWidth=1;spacing=6;spacingTop=-4;fillColor=#ffe6cc;strokeColor=#d79b00;" parent="1" vertex="1">
          <mxGeometry x="260" y="460" width="40" height="40" as="geometry" />
        </mxCell>
        <mxCell id="16UI_I2fcy8cxd0AZ1IG-49" value="unavailable" style="edgeStyle=orthogonalEdgeStyle;rounded=0;orthogonalLoop=1;jettySize=auto;html=1;exitX=0;exitY=0.5;exitDx=0;exitDy=0;entryX=0;entryY=0.5;entryDx=0;entryDy=0;" parent="1" source="16UI_I2fcy8cxd0AZ1IG-47" target="16UI_I2fcy8cxd0AZ1IG-33" edge="1">
          <mxGeometry relative="1" as="geometry">
            <Array as="points">
              <mxPoint x="80" y="320" />
              <mxPoint x="80" y="400" />
            </Array>
          </mxGeometry>
        </mxCell>
        <mxCell id="16UI_I2fcy8cxd0AZ1IG-52" value="available" style="edgeStyle=orthogonalEdgeStyle;rounded=0;orthogonalLoop=1;jettySize=auto;html=1;exitX=0.5;exitY=0;exitDx=0;exitDy=0;entryX=0.5;entryY=1;entryDx=0;entryDy=0;" parent="1" source="16UI_I2fcy8cxd0AZ1IG-47" target="16UI_I2fcy8cxd0AZ1IG-51" edge="1">
          <mxGeometry relative="1" as="geometry" />
        </mxCell>
        <mxCell id="16UI_I2fcy8cxd0AZ1IG-47" value="" style="rhombus;whiteSpace=wrap;html=1;shadow=0;fontFamily=Helvetica;fontSize=12;align=center;strokeWidth=1;spacing=6;spacingTop=-4;fillColor=#ffe6cc;strokeColor=#d79b00;" parent="1" vertex="1">
          <mxGeometry x="120" y="300" width="40" height="40" as="geometry" />
        </mxCell>
        <mxCell id="16UI_I2fcy8cxd0AZ1IG-51" value="Taxi service" style="rounded=0;whiteSpace=wrap;html=1;fillColor=#d5e8d4;strokeColor=#82b366;" parent="1" vertex="1">
          <mxGeometry x="100" y="180" width="80" height="40" as="geometry" />
        </mxCell>
        <mxCell id="16UI_I2fcy8cxd0AZ1IG-58" value="" style="shape=mxgraph.sysml.actFinal;html=1;verticalLabelPosition=bottom;labelBackgroundColor=#ffffff;verticalAlign=top;fillColor=#f5f5f5;fontColor=#333333;strokeColor=#666666;" parent="1" vertex="1">
          <mxGeometry x="40" y="190" width="20" height="20" as="geometry" />
        </mxCell>
        <mxCell id="16UI_I2fcy8cxd0AZ1IG-63" style="edgeStyle=orthogonalEdgeStyle;rounded=0;orthogonalLoop=1;jettySize=auto;html=1;exitX=0.5;exitY=0;exitDx=0;exitDy=0;entryX=0.5;entryY=1;entryDx=0;entryDy=0;" parent="1" source="16UI_I2fcy8cxd0AZ1IG-60" target="16UI_I2fcy8cxd0AZ1IG-62" edge="1">
          <mxGeometry relative="1" as="geometry" />
        </mxCell>
        <mxCell id="16UI_I2fcy8cxd0AZ1IG-60" value="Check availability" style="rounded=1;whiteSpace=wrap;html=1;fillColor=#dae8fc;strokeColor=#6c8ebf;" parent="1" vertex="1">
          <mxGeometry x="380" y="380" width="80" height="40" as="geometry" />
        </mxCell>
        <mxCell id="16UI_I2fcy8cxd0AZ1IG-65" value="unavailable" style="edgeStyle=orthogonalEdgeStyle;rounded=0;orthogonalLoop=1;jettySize=auto;html=1;exitX=1;exitY=0.5;exitDx=0;exitDy=0;entryX=1;entryY=0.5;entryDx=0;entryDy=0;" parent="1" source="16UI_I2fcy8cxd0AZ1IG-62" target="16UI_I2fcy8cxd0AZ1IG-60" edge="1">
          <mxGeometry x="0.2847" y="-20" relative="1" as="geometry">
            <Array as="points">
              <mxPoint x="480" y="320" />
              <mxPoint x="480" y="400" />
            </Array>
            <mxPoint y="1" as="offset" />
          </mxGeometry>
        </mxCell>
        <mxCell id="16UI_I2fcy8cxd0AZ1IG-76" value="available" style="edgeStyle=orthogonalEdgeStyle;rounded=0;orthogonalLoop=1;jettySize=auto;html=1;exitX=0.5;exitY=0;exitDx=0;exitDy=0;entryX=0.5;entryY=1;entryDx=0;entryDy=0;" parent="1" source="16UI_I2fcy8cxd0AZ1IG-62" target="16UI_I2fcy8cxd0AZ1IG-74" edge="1">
          <mxGeometry relative="1" as="geometry" />
        </mxCell>
        <mxCell id="16UI_I2fcy8cxd0AZ1IG-62" value="" style="rhombus;whiteSpace=wrap;html=1;shadow=0;fontFamily=Helvetica;fontSize=12;align=center;strokeWidth=1;spacing=6;spacingTop=-4;fillColor=#ffe6cc;strokeColor=#d79b00;" parent="1" vertex="1">
          <mxGeometry x="400" y="300" width="40" height="40" as="geometry" />
        </mxCell>
        <mxCell id="16UI_I2fcy8cxd0AZ1IG-64" style="edgeStyle=orthogonalEdgeStyle;rounded=0;orthogonalLoop=1;jettySize=auto;html=1;exitX=0;exitY=0.5;exitDx=0;exitDy=0;entryX=1;entryY=0.5;entryDx=0;entryDy=0;entryPerimeter=0;" parent="1" source="16UI_I2fcy8cxd0AZ1IG-51" target="16UI_I2fcy8cxd0AZ1IG-58" edge="1">
          <mxGeometry relative="1" as="geometry" />
        </mxCell>
        <mxCell id="16UI_I2fcy8cxd0AZ1IG-77" style="edgeStyle=orthogonalEdgeStyle;rounded=0;orthogonalLoop=1;jettySize=auto;html=1;exitX=0.5;exitY=0;exitDx=0;exitDy=0;entryX=0.5;entryY=1;entryDx=0;entryDy=0;" parent="1" source="16UI_I2fcy8cxd0AZ1IG-74" target="16UI_I2fcy8cxd0AZ1IG-75" edge="1">
          <mxGeometry relative="1" as="geometry" />
        </mxCell>
        <mxCell id="16UI_I2fcy8cxd0AZ1IG-74" value="Charge deposit" style="rounded=1;whiteSpace=wrap;html=1;fillColor=#dae8fc;strokeColor=#6c8ebf;" parent="1" vertex="1">
          <mxGeometry x="380" y="180" width="80" height="40" as="geometry" />
        </mxCell>
        <mxCell id="16UI_I2fcy8cxd0AZ1IG-81" style="edgeStyle=orthogonalEdgeStyle;rounded=0;orthogonalLoop=1;jettySize=auto;html=1;exitX=1;exitY=0.5;exitDx=0;exitDy=0;entryX=0;entryY=0.5;entryDx=0;entryDy=0;" parent="1" source="16UI_I2fcy8cxd0AZ1IG-75" target="16UI_I2fcy8cxd0AZ1IG-78" edge="1">
          <mxGeometry relative="1" as="geometry" />
        </mxCell>
        <mxCell id="16UI_I2fcy8cxd0AZ1IG-75" value="Car renting" style="rounded=0;whiteSpace=wrap;html=1;fillColor=#d5e8d4;strokeColor=#82b366;" parent="1" vertex="1">
          <mxGeometry x="380" y="100" width="80" height="40" as="geometry" />
        </mxCell>
        <mxCell id="16UI_I2fcy8cxd0AZ1IG-80" style="edgeStyle=orthogonalEdgeStyle;rounded=0;orthogonalLoop=1;jettySize=auto;html=1;exitX=0.5;exitY=1;exitDx=0;exitDy=0;entryX=0.5;entryY=0;entryDx=0;entryDy=0;" parent="1" source="16UI_I2fcy8cxd0AZ1IG-78" target="16UI_I2fcy8cxd0AZ1IG-79" edge="1">
          <mxGeometry relative="1" as="geometry" />
        </mxCell>
        <mxCell id="16UI_I2fcy8cxd0AZ1IG-78" value="Return vehicle" style="rounded=1;whiteSpace=wrap;html=1;fillColor=#dae8fc;strokeColor=#6c8ebf;" parent="1" vertex="1">
          <mxGeometry x="520" y="100" width="80" height="40" as="geometry" />
        </mxCell>
        <mxCell id="16UI_I2fcy8cxd0AZ1IG-83" style="edgeStyle=orthogonalEdgeStyle;rounded=0;orthogonalLoop=1;jettySize=auto;html=1;exitX=0.5;exitY=1;exitDx=0;exitDy=0;entryX=0.5;entryY=0;entryDx=0;entryDy=0;" parent="1" source="16UI_I2fcy8cxd0AZ1IG-79" target="16UI_I2fcy8cxd0AZ1IG-82" edge="1">
          <mxGeometry relative="1" as="geometry" />
        </mxCell>
        <mxCell id="16UI_I2fcy8cxd0AZ1IG-85" value="pass" style="edgeStyle=orthogonalEdgeStyle;rounded=0;orthogonalLoop=1;jettySize=auto;html=1;exitX=0.5;exitY=1;exitDx=0;exitDy=0;entryX=0.5;entryY=0;entryDx=0;entryDy=0;" parent="1" source="16UI_I2fcy8cxd0AZ1IG-82" target="16UI_I2fcy8cxd0AZ1IG-88" edge="1">
          <mxGeometry relative="1" as="geometry">
            <mxPoint x="590" y="350" as="targetPoint" />
          </mxGeometry>
        </mxCell>
        <mxCell id="16UI_I2fcy8cxd0AZ1IG-91" value="fail" style="edgeStyle=orthogonalEdgeStyle;rounded=0;orthogonalLoop=1;jettySize=auto;html=1;exitX=0;exitY=0.5;exitDx=0;exitDy=0;entryX=0;entryY=0.5;entryDx=0;entryDy=0;" parent="1" source="16UI_I2fcy8cxd0AZ1IG-82" target="16UI_I2fcy8cxd0AZ1IG-87" edge="1">
          <mxGeometry x="-0.1543" relative="1" as="geometry">
            <Array as="points">
              <mxPoint x="500" y="280" />
              <mxPoint x="500" y="480" />
            </Array>
            <mxPoint as="offset" />
          </mxGeometry>
        </mxCell>
        <mxCell id="16UI_I2fcy8cxd0AZ1IG-82" value="" style="rhombus;whiteSpace=wrap;html=1;shadow=0;fontFamily=Helvetica;fontSize=12;align=center;strokeWidth=1;spacing=6;spacingTop=-4;fillColor=#ffe6cc;strokeColor=#d79b00;" parent="1" vertex="1">
          <mxGeometry x="540" y="260" width="40" height="40" as="geometry" />
        </mxCell>
        <mxCell id="16UI_I2fcy8cxd0AZ1IG-89" value="" style="shape=mxgraph.sysml.actFinal;html=1;verticalLabelPosition=bottom;labelBackgroundColor=#ffffff;verticalAlign=top;fillColor=#f5f5f5;fontColor=#333333;strokeColor=#666666;" parent="1" vertex="1">
          <mxGeometry x="650" y="520" width="20" height="20" as="geometry" />
        </mxCell>
        <mxCell id="16UI_I2fcy8cxd0AZ1IG-97" value="Customer" style="rounded=0;whiteSpace=wrap;html=1;fillColor=#f5f5f5;fontColor=#333333;strokeColor=#666666;fontSize=14;fontStyle=1" parent="1" vertex="1">
          <mxGeometry x="100" y="540" width="500" height="20" as="geometry" />
        </mxCell>
        <mxCell id="16UI_I2fcy8cxd0AZ1IG-99" style="edgeStyle=orthogonalEdgeStyle;rounded=0;orthogonalLoop=1;jettySize=auto;html=1;exitX=0.119;exitY=-0.021;exitDx=0;exitDy=0;entryX=0.75;entryY=1;entryDx=0;entryDy=0;exitPerimeter=0;dashed=1;startArrow=oval;startFill=0;endArrow=block;endFill=0;fillColor=#f5f5f5;strokeColor=#666666;" parent="1" source="16UI_I2fcy8cxd0AZ1IG-97" target="16UI_I2fcy8cxd0AZ1IG-16" edge="1">
          <mxGeometry relative="1" as="geometry">
            <mxPoint x="130" y="510" as="sourcePoint" />
            <mxPoint x="129" y="550" as="targetPoint" />
          </mxGeometry>
        </mxCell>
        <mxCell id="16UI_I2fcy8cxd0AZ1IG-100" style="edgeStyle=orthogonalEdgeStyle;rounded=0;orthogonalLoop=1;jettySize=auto;html=1;exitX=0.25;exitY=1;exitDx=0;exitDy=0;entryX=0.041;entryY=-0.039;entryDx=0;entryDy=0;entryPerimeter=0;dashed=1;startArrow=oval;startFill=0;endArrow=block;endFill=0;fillColor=#f5f5f5;strokeColor=#666666;" parent="1" source="16UI_I2fcy8cxd0AZ1IG-16" target="16UI_I2fcy8cxd0AZ1IG-97" edge="1">
          <mxGeometry relative="1" as="geometry" />
        </mxCell>
        <mxCell id="16UI_I2fcy8cxd0AZ1IG-101" style="edgeStyle=orthogonalEdgeStyle;rounded=0;orthogonalLoop=1;jettySize=auto;html=1;exitX=0.25;exitY=1;exitDx=0;exitDy=0;entryX=0.6;entryY=0.022;entryDx=0;entryDy=0;entryPerimeter=0;dashed=1;startArrow=oval;startFill=0;endArrow=block;endFill=0;fillColor=#f5f5f5;strokeColor=#666666;" parent="1" source="16UI_I2fcy8cxd0AZ1IG-25" target="16UI_I2fcy8cxd0AZ1IG-97" edge="1">
          <mxGeometry relative="1" as="geometry">
            <mxPoint x="420" y="530" as="targetPoint" />
          </mxGeometry>
        </mxCell>
        <mxCell id="16UI_I2fcy8cxd0AZ1IG-102" style="edgeStyle=orthogonalEdgeStyle;rounded=0;orthogonalLoop=1;jettySize=auto;html=1;exitX=0.679;exitY=-0.018;exitDx=0;exitDy=0;entryX=0.75;entryY=1;entryDx=0;entryDy=0;exitPerimeter=0;dashed=1;startArrow=oval;startFill=0;endArrow=block;endFill=0;fillColor=#f5f5f5;strokeColor=#666666;" parent="1" source="16UI_I2fcy8cxd0AZ1IG-97" target="16UI_I2fcy8cxd0AZ1IG-25" edge="1">
          <mxGeometry relative="1" as="geometry">
            <mxPoint x="410" y="510" as="sourcePoint" />
            <mxPoint x="411" y="549" as="targetPoint" />
          </mxGeometry>
        </mxCell>
        <mxCell id="16UI_I2fcy8cxd0AZ1IG-110" style="edgeStyle=orthogonalEdgeStyle;rounded=0;orthogonalLoop=1;jettySize=auto;html=1;exitX=0.25;exitY=1;exitDx=0;exitDy=0;entryX=0.88;entryY=-0.021;entryDx=0;entryDy=0;entryPerimeter=0;dashed=1;startArrow=oval;startFill=0;endArrow=block;endFill=0;fillColor=#f5f5f5;strokeColor=#666666;" parent="1" source="16UI_I2fcy8cxd0AZ1IG-78" target="16UI_I2fcy8cxd0AZ1IG-97" edge="1">
          <mxGeometry relative="1" as="geometry">
            <mxPoint x="540.0434782608697" y="530" as="targetPoint" />
          </mxGeometry>
        </mxCell>
        <mxCell id="16UI_I2fcy8cxd0AZ1IG-111" style="edgeStyle=orthogonalEdgeStyle;rounded=0;orthogonalLoop=1;jettySize=auto;html=1;entryX=0.75;entryY=1;entryDx=0;entryDy=0;exitX=0.96;exitY=-0.025;exitDx=0;exitDy=0;exitPerimeter=0;dashed=1;startArrow=oval;startFill=0;endArrow=block;endFill=0;fillColor=#f5f5f5;strokeColor=#666666;" parent="1" source="16UI_I2fcy8cxd0AZ1IG-97" target="16UI_I2fcy8cxd0AZ1IG-78" edge="1">
          <mxGeometry relative="1" as="geometry">
            <mxPoint x="550" y="550" as="targetPoint" />
            <mxPoint x="580" y="530" as="sourcePoint" />
          </mxGeometry>
        </mxCell>
        <mxCell id="16UI_I2fcy8cxd0AZ1IG-79" value="Inspect vehicle" style="rounded=1;whiteSpace=wrap;html=1;fillColor=#dae8fc;strokeColor=#6c8ebf;" parent="1" vertex="1">
          <mxGeometry x="520" y="180" width="80" height="40" as="geometry" />
        </mxCell>
        <mxCell id="WFFZJL0nrHnwsi3dp-XC-16" style="edgeStyle=orthogonalEdgeStyle;rounded=0;orthogonalLoop=1;jettySize=auto;html=1;exitX=1;exitY=0.5;exitDx=0;exitDy=0;entryX=0;entryY=0.5;entryDx=0;entryDy=0;" parent="1" source="16UI_I2fcy8cxd0AZ1IG-87" target="WFFZJL0nrHnwsi3dp-XC-9" edge="1">
          <mxGeometry relative="1" as="geometry" />
        </mxCell>
        <mxCell id="16UI_I2fcy8cxd0AZ1IG-87" value="Conflict resolution" style="rounded=1;whiteSpace=wrap;html=1;fillColor=#dae8fc;strokeColor=#6c8ebf;" parent="1" vertex="1">
          <mxGeometry x="520" y="460" width="80" height="40" as="geometry" />
        </mxCell>
        <mxCell id="WFFZJL0nrHnwsi3dp-XC-18" style="edgeStyle=orthogonalEdgeStyle;rounded=0;orthogonalLoop=1;jettySize=auto;html=1;exitX=1;exitY=0.5;exitDx=0;exitDy=0;entryX=0.5;entryY=0;entryDx=0;entryDy=0;" parent="1" source="16UI_I2fcy8cxd0AZ1IG-88" target="WFFZJL0nrHnwsi3dp-XC-9" edge="1">
          <mxGeometry relative="1" as="geometry" />
        </mxCell>
        <mxCell id="16UI_I2fcy8cxd0AZ1IG-88" value="Deposit" style="rounded=0;whiteSpace=wrap;html=1;fillColor=#d5e8d4;strokeColor=#82b366;" parent="1" vertex="1">
          <mxGeometry x="520" y="380" width="80" height="40" as="geometry" />
        </mxCell>
        <mxCell id="WFFZJL0nrHnwsi3dp-XC-9" value="" style="rhombus;whiteSpace=wrap;html=1;shadow=0;fontFamily=Helvetica;fontSize=12;align=center;strokeWidth=1;spacing=6;spacingTop=-4;fillColor=#fff2cc;strokeColor=#d6b656;" parent="1" vertex="1">
          <mxGeometry x="640" y="460" width="40" height="40" as="geometry" />
        </mxCell>
        <mxCell id="WFFZJL0nrHnwsi3dp-XC-17" style="edgeStyle=orthogonalEdgeStyle;rounded=0;orthogonalLoop=1;jettySize=auto;html=1;exitX=0.5;exitY=1;exitDx=0;exitDy=0;entryX=0.5;entryY=0;entryDx=0;entryDy=0;entryPerimeter=0;" parent="1" source="WFFZJL0nrHnwsi3dp-XC-9" target="16UI_I2fcy8cxd0AZ1IG-89" edge="1">
          <mxGeometry relative="1" as="geometry" />
        </mxCell>
      </root>
    </mxGraphModel>
  </diagram>
</mxfile>
